<svg xmlns="http://www.w3.org/2000/svg" xmlns:xlink="http://www.w3.org/1999/xlink" width="320" zoomAndPan="magnify" viewBox="0 0 240 239.999995" height="320" preserveAspectRatio="xMidYMid meet" version="1.0"><defs><clipPath id="7658335fb7"><path d="M 6.921875 41.128906 L 233.421875 41.128906 L 233.421875 198.628906 L 6.921875 198.628906 Z M 6.921875 41.128906 " clip-rule="nonzero"/></clipPath><clipPath id="56d2be4687"><path d="M 13.332031 88 L 17.082031 88 L 17.082031 160 L 13.332031 160 Z M 13.332031 88 " clip-rule="nonzero"/></clipPath><clipPath id="935944173b"><path d="M 0.332031 0 L 4.082031 0 L 4.082031 72 L 0.332031 72 Z M 0.332031 0 " clip-rule="nonzero"/></clipPath><clipPath id="dbd296ae13"><rect x="0" width="5" y="0" height="72"/></clipPath></defs><g clip-path="url(#7658335fb7)"><path fill="#c8a04f" d="M 204.175781 41.136719 L 35.816406 41.136719 C 19.894531 41.136719 6.9375 54.09375 6.9375 70.015625 L 6.9375 170 C 6.9375 185.921875 19.894531 198.878906 35.816406 198.878906 L 204.175781 198.878906 C 220.097656 198.878906 233.054688 185.921875 233.054688 170 L 233.054688 70.015625 C 233.054688 54.09375 220.097656 41.136719 204.175781 41.136719 Z M 204.175781 56.890625 C 204.566406 56.890625 204.898438 57.078125 205.28125 57.113281 L 128.140625 118.125 C 123.351562 121.925781 116.652344 121.925781 111.855469 118.125 L 34.710938 57.113281 C 35.09375 57.078125 35.425781 56.890625 35.816406 56.890625 Z M 217.300781 170 C 217.300781 177.238281 211.414062 183.125 204.175781 183.125 L 35.816406 183.125 C 28.582031 183.125 22.691406 177.238281 22.691406 170 L 22.691406 70.015625 C 22.691406 69.304688 22.988281 68.691406 23.097656 68.015625 L 102.078125 130.484375 C 107.355469 134.652344 113.675781 136.738281 120 136.738281 C 126.320312 136.738281 132.640625 134.652344 137.914062 130.484375 L 216.898438 68.015625 C 217.003906 68.691406 217.300781 69.304688 217.300781 70.015625 Z M 217.300781 170 " fill-opacity="1" fill-rule="nonzero"/></g><g clip-path="url(#56d2be4687)"><g transform="matrix(1, 0, 0, 1, 13, 88)"><g clip-path="url(#dbd296ae13)"><g clip-path="url(#935944173b)"><path fill="#c8a04f" d="M 0.332031 0 L 4.082031 0 L 4.082031 71.996094 L 0.332031 71.996094 Z M 0.332031 0 " fill-opacity="1" fill-rule="nonzero"/></g></g></g></g></svg>