<svg xmlns="http://www.w3.org/2000/svg" xmlns:xlink="http://www.w3.org/1999/xlink" width="320" zoomAndPan="magnify" viewBox="0 0 240 239.999995" height="320" preserveAspectRatio="xMidYMid meet" version="1.0"><path fill="#c8a04f" d="M 73.582031 8.769531 C 61.671875 9.328125 53.535156 11.238281 46.425781 14.023438 C 39.0625 16.894531 32.824219 20.734375 26.621094 26.96875 C 20.40625 33.207031 16.589844 39.453125 13.75 46.828125 C 10.996094 53.960938 9.128906 62.09375 8.601562 74.015625 C 8.074219 85.949219 7.957031 89.757812 8.011719 120.164062 C 8.0625 150.5625 8.199219 154.382812 8.769531 166.324219 C 9.339844 178.234375 11.238281 186.359375 14.023438 193.480469 C 16.894531 200.847656 20.734375 207.070312 26.96875 213.285156 C 33.207031 219.5 39.453125 223.308594 46.828125 226.15625 C 53.949219 228.910156 62.09375 230.789062 74.003906 231.304688 C 85.949219 231.832031 89.757812 231.949219 120.15625 231.886719 C 150.5625 231.832031 154.371094 231.695312 166.3125 231.128906 C 178.226562 230.558594 186.351562 228.648438 193.472656 225.871094 C 200.835938 222.992188 207.070312 219.164062 213.273438 212.925781 C 219.480469 206.691406 223.296875 200.445312 226.148438 193.070312 C 228.902344 185.949219 230.777344 177.804688 231.296875 165.902344 C 231.8125 153.957031 231.941406 150.140625 231.886719 119.742188 C 231.832031 89.347656 231.6875 85.539062 231.128906 73.59375 C 230.558594 61.671875 228.65625 53.546875 225.871094 46.425781 C 222.992188 39.0625 219.164062 32.835938 212.925781 26.621094 C 206.691406 20.417969 200.445312 16.589844 193.070312 13.75 C 185.949219 10.996094 177.804688 9.117188 165.890625 8.601562 C 153.949219 8.074219 150.128906 7.957031 119.730469 8.011719 C 89.335938 8.0625 85.527344 8.199219 73.582031 8.769531 M 74.890625 211.144531 C 63.980469 210.667969 58.050781 208.855469 54.097656 207.335938 C 48.863281 205.308594 45.136719 202.882812 41.203125 198.988281 C 37.277344 195.074219 34.851562 191.351562 32.804688 186.140625 C 31.273438 182.191406 29.429688 176.273438 28.910156 165.355469 C 28.351562 153.558594 28.226562 150.011719 28.171875 120.121094 C 28.121094 90.242188 28.226562 86.699219 28.742188 74.890625 C 29.207031 63.980469 31.03125 58.050781 32.550781 54.105469 C 34.578125 48.875 36.992188 45.148438 40.898438 41.214844 C 44.8125 37.289062 48.535156 34.863281 53.757812 32.816406 C 57.703125 31.273438 63.625 29.4375 74.53125 28.921875 C 86.339844 28.363281 89.875 28.246094 119.765625 28.183594 C 149.652344 28.121094 153.199219 28.226562 165.003906 28.753906 C 175.914062 29.226562 181.84375 31.03125 185.789062 32.5625 C 191.023438 34.585938 194.757812 36.992188 198.683594 40.90625 C 202.609375 44.820312 205.046875 48.535156 207.082031 53.769531 C 208.621094 57.703125 210.457031 63.632812 210.976562 74.53125 C 211.535156 86.339844 211.660156 89.882812 211.714844 119.765625 C 211.765625 149.652344 211.660156 153.199219 211.144531 164.996094 C 210.667969 175.90625 208.855469 181.84375 207.335938 185.789062 C 205.308594 191.011719 202.894531 194.75 198.980469 198.671875 C 195.066406 202.585938 191.351562 205.023438 186.117188 207.070312 C 182.183594 208.613281 176.253906 210.449219 165.355469 210.964844 C 153.546875 211.523438 150.011719 211.648438 120.113281 211.703125 C 90.234375 211.757812 86.6875 211.648438 74.882812 211.132812 M 166.15625 60.109375 C 166.167969 67.527344 172.199219 73.53125 179.609375 73.507812 C 187.023438 73.5 193.027344 67.472656 193.019531 60.058594 C 193.007812 52.640625 186.972656 46.636719 179.554688 46.648438 C 172.136719 46.65625 166.132812 52.691406 166.144531 60.097656 M 62.464844 120.058594 C 62.527344 151.804688 88.3125 177.488281 120.050781 177.421875 C 151.796875 177.359375 177.488281 151.585938 177.421875 119.835938 C 177.359375 88.101562 151.574219 62.410156 119.828125 62.464844 C 88.089844 62.527344 62.398438 88.3125 62.464844 120.058594 M 82.625 120.015625 C 82.59375 99.410156 99.265625 82.667969 119.871094 82.636719 C 140.476562 82.59375 157.21875 99.265625 157.261719 119.878906 C 157.304688 140.484375 140.621094 157.230469 120.015625 157.261719 C 99.410156 157.304688 82.667969 140.621094 82.636719 120.015625 " fill-opacity="1" fill-rule="nonzero"/></svg>