<svg xmlns="http://www.w3.org/2000/svg" xmlns:xlink="http://www.w3.org/1999/xlink" width="320" zoomAndPan="magnify" viewBox="0 0 240 239.999995" height="320" preserveAspectRatio="xMidYMid meet" version="1.0"><defs><clipPath id="9660e6f12e"><path d="M 26.039062 9 L 213 9 L 213 239 L 26.039062 239 Z M 26.039062 9 " clip-rule="nonzero"/></clipPath></defs><g clip-path="url(#9660e6f12e)"><path fill="#19222c" d="M 32.53125 208.171875 C 37.699219 210.394531 44.882812 204.375 47.457031 202.203125 C 58.957031 192.558594 57.226562 182.730469 65.367188 169.363281 C 74.898438 153.761719 93.046875 141.390625 101.1875 145.480469 C 104.777344 147.277344 105.617188 153.671875 107.160156 166.375 C 110.09375 190.59375 111.558594 202.703125 107.160156 217.132812 C 104.597656 225.519531 101.265625 231.035156 104.171875 235.042969 C 107.75 239.972656 117.589844 238.300781 119.097656 238.03125 C 131.625 235.890625 139.179688 225.371094 142.980469 220.117188 C 149.800781 210.648438 152.039062 201.710938 154.917969 190.269531 C 159.0625 173.824219 156.375 172.757812 160.167969 163.628906 C 163.960938 154.5 167.308594 154.589844 181.789062 136.53125 C 191.722656 124.140625 197.671875 115.363281 202.691406 106.679688 C 209.671875 94.617188 211.015625 89.417969 211.648438 85.78125 C 213.886719 72.824219 210.019531 62.441406 208.660156 58.914062 C 206.179688 52.5 202.722656 43.550781 193.730469 38.011719 C 182.5625 31.132812 169.851562 33.714844 166.59375 34.386719 C 150.414062 37.683594 149.046875 45.046875 140 43.984375 C 126.324219 42.382812 126.324219 23.496094 107.167969 14.117188 C 105.539062 13.324219 92.460938 7.203125 77.320312 11.132812 C 57.550781 16.261719 42.617188 37.238281 43.707031 53.746094 C 43.707031 53.746094 43.753906 54.230469 43.851562 55.167969 C 46.886719 84.339844 47.382812 86.734375 47.460938 91.738281 C 47.636719 102.242188 45.769531 110.246094 44.476562 115.621094 C 40.679688 131.480469 36.460938 132.769531 31.34375 150.148438 C 29.171875 157.464844 26.742188 167.015625 26.566406 178.316406 C 26.351562 191.996094 26.15625 205.4375 32.53125 208.171875 Z M 32.53125 208.171875 " fill-opacity="1" fill-rule="nonzero"/></g></svg>