<svg xmlns="http://www.w3.org/2000/svg" xmlns:xlink="http://www.w3.org/1999/xlink" width="320" zoomAndPan="magnify" viewBox="0 0 240 239.999995" height="320" preserveAspectRatio="xMidYMid meet" version="1.0"><defs><clipPath id="d2863736b8"><path d="M 11.089844 109 L 115 109 L 115 215.757812 L 11.089844 215.757812 Z M 11.089844 109 " clip-rule="nonzero"/></clipPath><clipPath id="0f2ac530df"><path d="M 35 32.757812 L 136 32.757812 L 136 60 L 35 60 Z M 35 32.757812 " clip-rule="nonzero"/></clipPath><clipPath id="4438ec38b5"><path d="M 219 50 L 228.589844 50 L 228.589844 60 L 219 60 Z M 219 50 " clip-rule="nonzero"/></clipPath><clipPath id="e8387098b5"><path d="M 84 152.25 L 92.785156 152.25 L 92.785156 156 L 84 156 Z M 84 152.25 " clip-rule="nonzero"/></clipPath><clipPath id="672e590eeb"><path d="M 0 0.25 L 8.785156 0.25 L 8.785156 4 L 0 4 Z M 0 0.25 " clip-rule="nonzero"/></clipPath><clipPath id="d6fadf4cc1"><rect x="0" width="9" y="0" height="4"/></clipPath></defs><g clip-path="url(#d2863736b8)"><path fill="#19222c" d="M 94.828125 109.648438 C 93.695312 110.554688 92.378906 111.28125 90.929688 111.6875 C 90.660156 111.777344 90.386719 111.824219 90.160156 111.867188 C 89.84375 111.914062 89.527344 112.003906 89.207031 112.050781 C 89.074219 112.050781 88.890625 112.09375 88.753906 112.09375 C 88.4375 112.140625 88.121094 112.140625 87.757812 112.140625 L 65.601562 112.140625 C 62.929688 114.316406 54.773438 120.339844 46.753906 120.339844 C 46.390625 120.339844 45.984375 120.339844 45.621094 120.296875 C 43.988281 120.160156 42.765625 118.753906 42.855469 117.125 C 42.992188 115.492188 44.398438 114.269531 46.027344 114.359375 C 48.746094 114.542969 51.828125 113.546875 54.636719 112.140625 L 41.269531 112.140625 C 41.089844 112.140625 40.953125 112.140625 40.816406 112.09375 C 40.136719 112.003906 39.503906 111.867188 38.871094 111.6875 C 38.734375 111.640625 38.550781 111.597656 38.417969 111.550781 C 38.28125 111.507812 38.097656 111.460938 37.964844 111.414062 C 37.828125 111.371094 37.691406 111.324219 37.511719 111.28125 C 37.375 111.234375 37.285156 111.1875 37.148438 111.144531 C 36.964844 111.097656 36.832031 111.007812 36.648438 110.960938 C 36.511719 110.917969 36.378906 110.828125 36.242188 110.78125 C 36.105469 110.734375 35.96875 110.644531 35.832031 110.601562 C 35.699219 110.554688 35.5625 110.464844 35.425781 110.417969 C 34.746094 110.054688 34.066406 109.648438 33.476562 109.242188 C 21.425781 110.417969 13.632812 118.9375 11.457031 133.34375 C 10.367188 141.273438 13.40625 146.078125 16.9375 151.652344 C 20.066406 156.589844 23.644531 162.207031 23.644531 170.273438 C 23.644531 180.058594 24.097656 190.074219 27.359375 197.007812 C 30.621094 203.984375 35.96875 212.503906 41.132812 215.449219 C 42.765625 216.128906 44.757812 216.171875 45.757812 215.582031 C 45.9375 215.449219 46.34375 215.222656 46.390625 214.222656 C 46.390625 213.816406 46.390625 212.957031 46.390625 211.957031 C 46.300781 202.308594 46.074219 172.945312 61.480469 165.96875 C 61.886719 165.789062 62.292969 165.695312 62.703125 165.695312 C 63.109375 165.695312 63.5625 165.789062 63.925781 165.96875 C 79.332031 172.992188 79.105469 202.308594 79.015625 211.957031 C 79.015625 212.957031 79.015625 213.863281 79.015625 214.222656 C 79.058594 215.222656 79.421875 215.449219 79.648438 215.582031 C 80.601562 216.171875 82.640625 216.128906 84.269531 215.449219 C 89.433594 212.457031 94.78125 203.984375 98.042969 197.007812 C 101.304688 190.074219 101.757812 180.058594 101.757812 170.273438 C 101.757812 162.207031 105.339844 156.589844 108.464844 151.652344 C 112 146.078125 115.035156 141.273438 113.949219 133.300781 C 111.953125 120.207031 105.203125 111.867188 94.828125 109.648438 Z M 94.828125 109.648438 " fill-opacity="1" fill-rule="nonzero"/></g><g clip-path="url(#0f2ac530df)"><path fill="#19222c" d="M 129.671875 49.792969 L 101.125 33.347656 C 100.398438 32.9375 99.765625 32.757812 98.90625 32.757812 L 35.789062 32.757812 L 35.789062 41.59375 L 96.457031 41.59375 C 97.320312 41.59375 98.136719 41.820312 98.859375 42.226562 L 127.40625 58.675781 C 128.128906 59.082031 128.765625 59.261719 129.625 59.261719 L 135.652344 59.261719 L 135.652344 50.472656 L 132.117188 50.472656 C 131.257812 50.472656 130.441406 50.246094 129.671875 49.792969 Z M 129.671875 49.792969 " fill-opacity="1" fill-rule="nonzero"/></g><path fill="#19222c" d="M 153.640625 50.472656 L 201.578125 50.472656 L 201.578125 59.308594 L 153.640625 59.308594 Z M 153.640625 50.472656 " fill-opacity="1" fill-rule="nonzero"/><g clip-path="url(#4438ec38b5)"><path fill="#19222c" d="M 224.324219 50.472656 L 219.566406 50.472656 L 219.566406 59.308594 L 224.324219 59.308594 C 226.769531 59.308594 228.765625 57.316406 228.765625 54.867188 C 228.765625 52.421875 226.769531 50.472656 224.324219 50.472656 Z M 224.324219 50.472656 " fill-opacity="1" fill-rule="nonzero"/></g><path fill="#19222c" d="M 141.585938 50.472656 L 147.660156 50.472656 L 147.660156 59.308594 L 141.585938 59.308594 Z M 141.585938 50.472656 " fill-opacity="1" fill-rule="nonzero"/><path fill="#19222c" d="M 207.511719 50.472656 L 213.585938 50.472656 L 213.585938 59.308594 L 207.511719 59.308594 Z M 207.511719 50.472656 " fill-opacity="1" fill-rule="nonzero"/><path fill="#19222c" d="M 39.003906 105.433594 C 39.230469 105.523438 39.457031 105.617188 39.683594 105.707031 C 39.820312 105.75 39.910156 105.796875 40.046875 105.84375 C 40.136719 105.886719 40.226562 105.886719 40.320312 105.933594 C 40.453125 105.976562 40.636719 106.023438 40.816406 106.070312 C 41.042969 106.113281 41.316406 106.160156 41.585938 106.203125 L 87.847656 106.203125 C 87.941406 106.203125 88.03125 106.203125 88.121094 106.203125 C 88.753906 106.160156 89.390625 106.023438 90.023438 105.75 C 90.703125 105.433594 91.339844 105.027344 91.835938 104.4375 C 91.882812 104.390625 91.925781 104.347656 91.972656 104.300781 C 92.789062 103.351562 93.285156 102.082031 93.285156 100.722656 C 93.285156 97.730469 90.839844 95.285156 87.847656 95.285156 L 47.796875 95.285156 C 47.660156 95.285156 47.570312 95.285156 47.476562 95.285156 C 46.980469 95.238281 42.628906 94.652344 40.136719 90.707031 C 38.871094 88.761719 38.371094 86.402344 38.644531 83.6875 C 37.191406 84.410156 35.472656 85.679688 33.75 88.035156 C 33.523438 88.398438 32.027344 91.207031 32.300781 95.601562 C 32.300781 95.964844 32.84375 102.898438 39.003906 105.433594 Z M 39.003906 105.433594 " fill-opacity="1" fill-rule="nonzero"/><path fill="#19222c" d="M 43.671875 47.527344 L 40.320312 47.527344 L 40.320312 64.792969 L 43.671875 66.511719 Z M 43.671875 47.527344 " fill-opacity="1" fill-rule="nonzero"/><path fill="#19222c" d="M 49.652344 47.527344 L 49.652344 66.511719 L 53.050781 64.792969 L 53.050781 47.527344 Z M 49.652344 47.527344 " fill-opacity="1" fill-rule="nonzero"/><path fill="#19222c" d="M 58.988281 47.527344 L 58.988281 64.792969 L 62.386719 66.511719 L 62.386719 47.527344 Z M 58.988281 47.527344 " fill-opacity="1" fill-rule="nonzero"/><path fill="#19222c" d="M 90.433594 47.527344 L 87.035156 47.527344 L 87.035156 66.511719 L 90.433594 64.792969 Z M 90.433594 47.527344 " fill-opacity="1" fill-rule="nonzero"/><path fill="#19222c" d="M 68.367188 47.527344 L 68.367188 66.511719 L 71.71875 64.792969 L 71.71875 47.527344 Z M 68.367188 47.527344 " fill-opacity="1" fill-rule="nonzero"/><path fill="#19222c" d="M 77.699219 47.527344 L 77.699219 64.792969 L 81.097656 66.511719 L 81.097656 47.527344 Z M 77.699219 47.527344 " fill-opacity="1" fill-rule="nonzero"/><g clip-path="url(#e8387098b5)"><g transform="matrix(1, 0, 0, 1, 84, 152)"><g clip-path="url(#d6fadf4cc1)"><g clip-path="url(#672e590eeb)"><path fill="#19222c" d="M 0 0.25 L 8.789062 0.25 L 8.789062 4 L 0 4 Z M 0 0.25 " fill-opacity="1" fill-rule="nonzero"/></g></g></g></g></svg>