<svg xmlns="http://www.w3.org/2000/svg" xmlns:xlink="http://www.w3.org/1999/xlink" width="320" zoomAndPan="magnify" viewBox="0 0 240 239.999995" height="320" preserveAspectRatio="xMidYMid meet" version="1.0"><path fill="#19222c" d="M 190.234375 91.738281 C 187.269531 97.289062 185.992188 103.597656 186.613281 109.863281 C 192.734375 171.660156 177.710938 233.691406 152.867188 232.695312 C 140.386719 232.1875 158.910156 152.917969 122.773438 154.820312 C 79.824219 155.945312 111.183594 237.015625 98.734375 236.519531 C 93.90625 236.328125 89.265625 233.445312 84.960938 228.535156 C 67.246094 208.339844 55.269531 153.777344 59.914062 110.46875 C 60.578125 104.292969 60 98.027344 58.082031 92.117188 C 38.4375 31.515625 87.011719 -5.535156 116.546875 21.160156 C 123.03125 27.019531 132.757812 27.410156 139.6875 22.085938 C 160.871094 5.832031 183.6875 19.300781 193.179688 37.617188 C 200.351562 51.417969 201.589844 70.433594 190.234375 91.738281 " fill-opacity="1" fill-rule="nonzero"/><path fill="#19222c" d="M 96.710938 170.34375 C 91.519531 182.378906 87.785156 194.796875 85.976562 207.796875 C 85.097656 214.097656 84.171875 220.574219 84.78125 226.945312 C 84.828125 227.46875 84.890625 227.996094 84.960938 228.535156 C 89.265625 233.445312 93.90625 236.328125 98.734375 236.519531 C 111.324219 237.023438 79.445312 155.984375 123.289062 154.796875 C 122.957031 154.714844 122.621094 154.640625 122.277344 154.582031 C 109.957031 152.410156 101.691406 158.789062 96.710938 170.34375 Z M 167.507812 20.578125 C 168.324219 20.386719 170.453125 20.054688 167.5 20.472656 C 167.578125 19.988281 173.429688 20.320312 174.066406 20.441406 C 177.023438 21.039062 178.5 21.738281 178.960938 21.871094 C 178.871094 21.824219 178.449219 21.652344 177.710938 21.347656 C 178.140625 21.203125 179.902344 22.46875 180.296875 22.695312 C 180.746094 22.953125 181.21875 23.171875 181.695312 23.359375 C 169.167969 13.070312 153.761719 11.285156 139.6875 22.085938 C 132.757812 27.410156 123.03125 27.019531 116.546875 21.160156 C 113.667969 18.558594 110.59375 16.472656 107.367188 14.964844 C 110.683594 32.832031 130.382812 42.617188 148.253906 32.371094 C 155.167969 28.40625 159.835938 22.292969 167.507812 20.578125 Z M 193.179688 37.617188 C 191.609375 61.378906 175.226562 70.378906 167.757812 92.65625 C 161.785156 110.433594 164.386719 130.507812 166.242188 145.105469 C 166.402344 146.328125 166.589844 147.464844 166.914062 148.535156 C 166.417969 174.257812 159.585938 200.996094 148.316406 223.414062 C 149 228.996094 150.25 232.589844 152.867188 232.695312 C 177.710938 233.691406 192.734375 171.660156 186.613281 109.863281 C 185.992188 103.597656 187.269531 97.289062 190.234375 91.738281 C 201.589844 70.433594 200.351562 51.417969 193.179688 37.617188 " fill-opacity="1" fill-rule="nonzero"/></svg>