<svg xmlns="http://www.w3.org/2000/svg" xmlns:xlink="http://www.w3.org/1999/xlink" width="320" zoomAndPan="magnify" viewBox="0 0 240 239.999995" height="320" preserveAspectRatio="xMidYMid meet" version="1.0"><defs><clipPath id="d009bfdd60"><path d="M 3.773438 10 L 236 10 L 236 227 L 3.773438 227 Z M 3.773438 10 " clip-rule="nonzero"/></clipPath></defs><path fill="#19222c" d="M 81.492188 59.578125 L 80.839844 63.167969 C 79.570312 70.203125 73.460938 75.125 66.574219 75.125 C 57.429688 75.125 50.5625 66.8125 52.179688 57.867188 L 52.824219 54.277344 L 69.042969 49.152344 Z M 81.492188 59.578125 " fill-opacity="1" fill-rule="nonzero"/><path fill="#19222c" d="M 223.09375 67.203125 C 228.042969 68.117188 231.328125 72.878906 230.429688 77.835938 C 229.527344 82.824219 224.75 86.070312 219.851562 85.152344 L 210.925781 83.511719 L 207.898438 73.972656 L 214.164062 65.566406 Z M 223.09375 67.203125 " fill-opacity="1" fill-rule="nonzero"/><path fill="#19222c" d="M 138.824219 70.164062 C 127.019531 66.953125 115.972656 61.664062 105.984375 54.613281 L 85.058594 39.832031 L 81.492188 30.238281 L 88.625 20.089844 L 121.492188 43.304688 C 127.671875 47.664062 134.675781 50.695312 142.070312 52.210938 L 146.8125 62.136719 Z M 138.824219 70.164062 " fill-opacity="1" fill-rule="nonzero"/><path fill="#19222c" d="M 142.070312 52.210938 C 144.046875 52.617188 156.832031 54.949219 214.164062 65.566406 L 210.925781 83.511719 C 153.707031 72.921875 139.953125 70.394531 138.824219 70.164062 Z M 142.070312 52.210938 " fill-opacity="1" fill-rule="nonzero"/><path fill="#19222c" d="M 135.308594 126.800781 C 135.328125 131.332031 134.378906 135.664062 132.519531 139.5625 C 111.984375 182.640625 117.011719 178.90625 113.566406 199.585938 L 111.171875 213.972656 C 110.4375 218.3125 106.375 221.527344 101.582031 221.527344 C 97.195312 221.527344 93.503906 218.847656 92.304688 215.191406 L 81.351562 181.804688 C 78.34375 172.589844 65.285156 172.5625 62.25 181.804688 L 51.300781 215.191406 C 50.0625 218.949219 46.296875 221.527344 42.015625 221.527344 C 37.128906 221.527344 33.144531 218.21875 32.433594 213.972656 L 30.035156 199.585938 C 26.589844 178.90625 31.621094 182.640625 11.085938 139.5625 C 9.21875 135.664062 8.273438 131.332031 8.289062 126.800781 C 8.359375 109.042969 24.191406 94.527344 43.535156 94.503906 C 51.863281 94.492188 56.804688 96.988281 59.746094 97.917969 C 68.539062 100.714844 77.941406 100.320312 86.230469 97.078125 C 109.394531 88.042969 135.222656 103.75 135.308594 126.800781 Z M 135.308594 126.800781 " fill-opacity="1" fill-rule="nonzero"/><path fill="#19222c" d="M 88.625 20.089844 C 88.613281 20.148438 81.5 59.523438 81.492188 59.578125 L 52.824219 54.277344 L 59.960938 14.789062 Z M 88.625 20.089844 " fill-opacity="1" fill-rule="nonzero"/><g clip-path="url(#d009bfdd60)"><path fill="#19222c" d="M 223.910156 62.757812 C 141.828125 47.601562 142.929688 47.777344 142.976562 47.785156 C 136.144531 46.382812 129.792969 43.632812 124.097656 39.609375 C 89.199219 14.980469 90.832031 15.898438 89.449219 15.648438 L 60.78125 10.347656 C 58.324219 9.894531 55.960938 11.527344 55.515625 13.988281 C 54.789062 18.011719 48.53125 52.628906 47.730469 57.066406 C 46.132812 65.898438 50.914062 74.453125 58.765625 77.96875 L 56.246094 91.898438 C 30.941406 83.964844 3.867188 101.390625 3.773438 126.785156 C 3.753906 132.023438 4.839844 136.980469 7.007812 141.507812 C 27.148438 183.761719 22.117188 179.550781 25.578125 200.324219 L 27.976562 214.71875 C 30.332031 228.746094 51.152344 230.097656 55.59375 216.597656 L 66.539062 183.210938 C 68.210938 178.132812 75.398438 178.128906 77.058594 183.207031 L 88.011719 216.601562 C 92.441406 230.082031 113.269531 228.765625 115.625 214.714844 L 118.023438 200.328125 C 121.488281 179.535156 116.457031 183.75 136.59375 141.511719 C 140.132812 134.105469 139.71875 127.824219 139.828125 126.78125 C 139.730469 100.414062 110.566406 82.726562 84.585938 92.871094 C 78.285156 95.335938 71.488281 95.90625 64.941406 94.597656 L 67.652344 79.609375 C 76.3125 79.125 83.707031 72.730469 85.289062 63.96875 C 85.207031 64.425781 88.242188 47.621094 88.246094 47.613281 L 103.378906 58.300781 C 113.9375 65.757812 125.460938 71.214844 137.640625 74.519531 C 137.679688 74.53125 137.722656 74.535156 137.765625 74.546875 C 138.671875 74.765625 200.933594 86.25 219.03125 89.59375 C 226.414062 90.957031 233.53125 86.085938 234.878906 78.636719 C 236.210938 71.246094 231.292969 64.125 223.910156 62.757812 Z M 207.28125 78.246094 C 179.246094 73.054688 148.90625 67.445312 144.066406 66.546875 C 145.035156 61.195312 144.734375 62.859375 145.703125 57.496094 C 150.867188 58.457031 180.652344 63.957031 208.917969 69.1875 Z M 63.601562 20.058594 L 83.378906 23.714844 C 80.527344 39.488281 80.703125 38.519531 80.613281 39.027344 C 80.613281 39.03125 80.613281 39.03125 80.613281 39.03125 L 77.851562 54.3125 L 58.070312 50.65625 Z M 87.875 101.285156 C 108.125 93.378906 130.71875 106.945312 130.792969 126.816406 C 130.808594 130.6875 130.015625 134.320312 128.4375 137.617188 C 107.496094 181.546875 112.546875 178.207031 109.109375 198.84375 L 106.714844 213.226562 C 105.925781 217.917969 98.101562 218.363281 96.59375 213.785156 L 85.648438 180.398438 C 81.289062 167.054688 62.363281 166.988281 57.957031 180.394531 L 47.007812 213.78125 C 45.496094 218.375 37.675781 217.902344 36.890625 213.230469 L 34.492188 198.839844 C 31.054688 178.210938 36.105469 181.546875 15.160156 137.613281 C 13.585938 134.320312 12.792969 130.6875 12.808594 126.820312 C 12.882812 106.925781 35.5 93.390625 55.730469 101.289062 C 65.683594 105.167969 77.152344 105.480469 87.875 101.285156 Z M 72.234375 68.832031 C 65.242188 73.660156 55.722656 68.046875 56.503906 59.554688 L 76.210938 63.195312 C 75.59375 65.492188 74.203125 67.472656 72.234375 68.832031 Z M 90.015625 37.804688 L 91.8125 27.871094 L 118.886719 46.992188 C 124.398438 50.882812 130.429688 53.765625 136.867188 55.589844 L 135.277344 64.386719 C 125.859375 61.308594 116.902344 56.789062 108.59375 50.921875 Z M 225.984375 77.03125 C 225.539062 79.5 223.183594 81.175781 220.664062 80.707031 L 216.167969 79.882812 C 216.582031 77.609375 217.46875 72.691406 217.808594 70.828125 L 222.273438 71.644531 C 224.773438 72.105469 226.4375 74.523438 225.984375 77.03125 Z M 225.984375 77.03125 " fill-opacity="1" fill-rule="nonzero"/></g></svg>