<svg xmlns="http://www.w3.org/2000/svg" xmlns:xlink="http://www.w3.org/1999/xlink" width="320" zoomAndPan="magnify" viewBox="0 0 240 239.999995" height="320" preserveAspectRatio="xMidYMid meet" version="1.0"><defs><clipPath id="cb6cde1988"><path d="M 25.589844 47 L 193 47 L 193 214.589844 L 25.589844 214.589844 Z M 25.589844 47 " clip-rule="nonzero"/></clipPath><clipPath id="6186938a88"><path d="M 173 25.589844 L 214.589844 25.589844 L 214.589844 67 L 173 67 Z M 173 25.589844 " clip-rule="nonzero"/></clipPath></defs><path fill="#19222c" d="M 188.503906 91.992188 C 188.527344 97.667969 187.339844 103.097656 185.007812 107.976562 C 159.277344 161.957031 165.578125 157.273438 161.261719 183.1875 L 158.253906 201.210938 C 157.34375 206.65625 152.25 210.679688 146.246094 210.679688 C 140.75 210.679688 136.125 207.320312 134.617188 202.742188 L 120.898438 160.90625 C 117.128906 149.363281 100.769531 149.332031 96.960938 160.90625 L 83.238281 202.742188 C 81.691406 207.453125 76.96875 210.679688 71.613281 210.679688 C 65.484375 210.679688 60.496094 206.535156 59.597656 201.210938 L 56.597656 183.1875 C 52.277344 157.273438 58.582031 161.957031 32.851562 107.976562 C 30.519531 103.097656 29.328125 97.667969 29.347656 91.992188 C 29.460938 63.058594 61.878906 43.421875 90.847656 54.746094 C 102.6875 59.363281 115.679688 59.179688 127.007812 54.746094 C 132.332031 52.664062 138.191406 51.511719 144.347656 51.523438 C 168.582031 51.550781 188.421875 69.738281 188.503906 91.992188 Z M 188.503906 91.992188 " fill-opacity="1" fill-rule="nonzero"/><path fill="#19222c" d="M 79.316406 77.429688 C 82.382812 88.53125 84.867188 91.019531 95.972656 94.085938 C 84.867188 97.152344 82.382812 99.640625 79.316406 110.742188 C 76.25 99.640625 73.765625 97.152344 62.664062 94.085938 C 73.765625 91.019531 76.25 88.53125 79.316406 77.429688 Z M 79.316406 77.429688 " fill-opacity="1" fill-rule="nonzero"/><path fill="#19222c" d="M 194.0625 29.3125 C 197.125 40.414062 199.613281 42.902344 210.714844 45.96875 C 199.613281 49.035156 197.125 51.523438 194.0625 62.625 C 190.992188 51.523438 188.507812 49.035156 177.402344 45.96875 C 188.507812 42.902344 190.992188 40.414062 194.0625 29.3125 Z M 194.0625 29.3125 " fill-opacity="1" fill-rule="nonzero"/><g clip-path="url(#cb6cde1988)"><path fill="#19222c" d="M 125.664062 51.3125 C 114.890625 55.53125 103 55.53125 92.1875 51.3125 C 61.25 39.234375 25.785156 60.015625 25.664062 91.976562 C 25.578125 114.195312 47.515625 134.128906 51.148438 169.769531 C 52.511719 183.121094 53.730469 187.578125 55.964844 201.824219 C 57.183594 209.089844 63.765625 214.363281 71.609375 214.363281 C 78.601562 214.363281 84.683594 210.15625 86.742188 203.890625 L 100.460938 162.054688 C 103.132812 153.929688 114.707031 153.828125 117.394531 162.054688 L 131.113281 203.894531 C 133.171875 210.15625 139.253906 214.363281 146.246094 214.363281 C 154.09375 214.363281 160.671875 209.089844 161.890625 201.820312 C 164.636719 184.300781 165.3125 183.457031 166.707031 169.769531 C 170.304688 134.464844 192.273438 114.050781 192.191406 91.976562 C 192.074219 60.597656 157.238281 38.988281 125.664062 51.3125 Z M 159.371094 169.023438 C 158.050781 182.015625 156.828125 186.523438 154.621094 200.605469 C 154.011719 204.246094 150.410156 206.992188 146.246094 206.992188 C 142.503906 206.992188 139.164062 204.769531 138.117188 201.59375 L 124.402344 159.757812 C 119.527344 144.847656 98.382812 144.785156 93.457031 159.757812 L 79.738281 201.589844 C 78.691406 204.769531 75.351562 206.992188 71.609375 206.992188 C 67.449219 206.992188 63.847656 204.246094 63.238281 200.609375 C 60.507812 183.210938 59.847656 182.398438 58.484375 169.023438 C 54.777344 132.640625 32.964844 111.425781 33.035156 92.003906 C 33.136719 65.3125 63.304688 47.949219 89.507812 58.179688 C 102.050781 63.074219 115.847656 63.074219 128.351562 58.179688 C 154.691406 47.894531 184.71875 65.453125 184.820312 92.003906 C 184.894531 111.40625 163.074219 132.714844 159.371094 169.023438 Z M 159.371094 169.023438 " fill-opacity="1" fill-rule="nonzero"/></g><path fill="#19222c" d="M 96.953125 90.53125 C 87.054688 87.796875 85.605469 86.351562 82.871094 76.449219 C 81.878906 72.855469 76.757812 72.851562 75.765625 76.449219 C 73.03125 86.351562 71.582031 87.796875 61.679688 90.53125 C 58.085938 91.523438 58.082031 96.644531 61.679688 97.640625 C 71.582031 100.375 73.03125 101.820312 75.765625 111.722656 C 76.761719 115.328125 81.875 115.324219 82.871094 111.722656 C 85.605469 101.820312 87.054688 100.375 96.953125 97.640625 C 100.546875 96.648438 100.550781 91.527344 96.953125 90.53125 Z M 79.316406 100.371094 C 77.746094 97.609375 75.792969 95.660156 73.035156 94.085938 C 75.792969 92.511719 77.746094 90.5625 79.316406 87.800781 C 80.890625 90.5625 82.84375 92.511719 85.601562 94.085938 C 82.84375 95.660156 80.890625 97.609375 79.316406 100.371094 Z M 79.316406 100.371094 " fill-opacity="1" fill-rule="nonzero"/><g clip-path="url(#6186938a88)"><path fill="#19222c" d="M 211.695312 42.414062 C 201.796875 39.679688 200.347656 38.234375 197.613281 28.332031 C 197.171875 26.734375 195.71875 25.625 194.058594 25.625 C 192.402344 25.625 190.949219 26.734375 190.507812 28.332031 C 187.773438 38.234375 186.324219 39.679688 176.421875 42.414062 C 174.824219 42.855469 173.714844 44.3125 173.714844 45.96875 C 173.714844 47.628906 174.824219 49.082031 176.421875 49.523438 C 186.324219 52.257812 187.769531 53.703125 190.503906 63.605469 C 190.945312 65.203125 192.402344 66.3125 194.058594 66.3125 C 195.71875 66.3125 197.171875 65.203125 197.613281 63.605469 C 200.347656 53.703125 201.792969 52.257812 211.695312 49.523438 C 213.292969 49.082031 214.402344 47.628906 214.402344 45.96875 C 214.402344 44.3125 213.292969 42.855469 211.695312 42.414062 Z M 194.058594 52.253906 C 192.484375 49.492188 190.535156 47.542969 187.777344 45.96875 C 190.535156 44.394531 192.484375 42.445312 194.058594 39.683594 C 195.632812 42.445312 197.582031 44.394531 200.34375 45.96875 C 197.582031 47.542969 195.632812 49.492188 194.058594 52.253906 Z M 194.058594 52.253906 " fill-opacity="1" fill-rule="nonzero"/></g></svg>