<svg xmlns="http://www.w3.org/2000/svg" xmlns:xlink="http://www.w3.org/1999/xlink" width="320" zoomAndPan="magnify" viewBox="0 0 240 239.999995" height="320" preserveAspectRatio="xMidYMid meet" version="1.0"><defs><clipPath id="327ed34ae1"><path d="M 8.007812 7.394531 L 232 7.394531 L 232 232.394531 L 8.007812 232.394531 Z M 8.007812 7.394531 " clip-rule="nonzero"/></clipPath></defs><g clip-path="url(#327ed34ae1)"><path fill="#c8a04f" d="M 199.332031 40.203125 C 178.28125 19.132812 150.285156 7.503906 120.457031 7.503906 C 58.992188 7.503906 8.964844 57.519531 8.945312 119.003906 C 8.945312 138.652344 14.074219 157.847656 23.832031 174.75 L 8.007812 232.53125 L 67.125 217.019531 C 83.414062 225.910156 101.75 230.582031 120.410156 230.59375 L 120.457031 230.59375 C 181.910156 230.59375 231.945312 180.566406 231.957031 119.09375 C 231.957031 89.296875 220.382812 61.289062 199.320312 40.203125 Z M 120.457031 211.765625 L 120.421875 211.765625 C 103.800781 211.765625 87.476562 207.292969 73.246094 198.847656 L 69.863281 196.835938 L 34.78125 206.039062 L 44.136719 171.832031 L 41.933594 168.328125 C 32.65625 153.574219 27.757812 136.519531 27.769531 119.003906 C 27.792969 67.910156 69.371094 26.328125 120.488281 26.328125 C 145.246094 26.328125 168.511719 35.988281 186.015625 53.511719 C 203.515625 71.027344 213.140625 94.3125 213.128906 119.082031 C 213.109375 170.1875 171.527344 211.765625 120.445312 211.765625 Z M 171.292969 142.359375 C 168.511719 140.96875 154.816406 134.226562 152.253906 133.300781 C 149.695312 132.367188 147.847656 131.910156 145.992188 134.691406 C 144.132812 137.484375 138.792969 143.761719 137.167969 145.621094 C 135.542969 147.476562 133.917969 147.710938 131.125 146.308594 C 128.34375 144.917969 119.363281 141.96875 108.71875 132.480469 C 100.4375 125.089844 94.84375 115.964844 93.21875 113.171875 C 91.59375 110.382812 93.050781 108.878906 94.441406 107.488281 C 95.6875 106.242188 97.222656 104.226562 98.625 102.601562 C 100.015625 100.980469 100.484375 99.8125 101.40625 97.953125 C 102.339844 96.09375 101.875 94.46875 101.171875 93.066406 C 100.472656 91.675781 94.910156 77.957031 92.582031 72.382812 C 90.324219 66.953125 88.019531 67.6875 86.320312 67.597656 C 84.695312 67.519531 82.835938 67.5 80.976562 67.5 C 79.121094 67.5 76.105469 68.1875 73.546875 70.980469 C 70.984375 73.773438 63.796875 80.515625 63.796875 94.226562 C 63.796875 107.933594 73.777344 121.183594 75.179688 123.054688 C 76.570312 124.914062 94.832031 153.050781 122.78125 165.125 C 129.421875 167.996094 134.621094 169.707031 138.667969 171 C 145.347656 173.125 151.421875 172.824219 156.214844 172.101562 C 161.570312 171.300781 172.695312 165.359375 175.019531 158.847656 C 177.347656 152.339844 177.347656 146.765625 176.644531 145.597656 C 175.945312 144.429688 174.085938 143.738281 171.304688 142.335938 Z M 171.292969 142.359375 " fill-opacity="1" fill-rule="evenodd"/></g></svg>